<svg xmlns="http://www.w3.org/2000/svg" viewBox="0 0 609 541" width="609" height="541" role="img" aria-label="Reya-Doshi · language mix" font-family="ui-sans-serif,-apple-system,Segoe UI,Helvetica,Arial,sans-serif"><text x="304.5" y="25" text-anchor="middle" font-size="15" font-weight="700" fill="#1f2328">Reya-Doshi · language mix</text><g transform="translate(292.6,289.0)"><polygon points="0.0,-212.0 165.7,-132.2 206.7,47.2 92.0,191.0 -92.0,191.0 -206.7,47.2 -165.7,-132.2" fill="none" stroke="#d0d7de" stroke-width="1" opacity="0.85"/><polygon points="0.0,-159.0 124.3,-99.1 155.0,35.4 69.0,143.3 -69.0,143.3 -155.0,35.4 -124.3,-99.1" fill="none" stroke="#d0d7de" stroke-width="1" opacity="0.72"/><polygon points="0.0,-106.0 82.9,-66.1 103.3,23.6 46.0,95.5 -46.0,95.5 -103.3,23.6 -82.9,-66.1" fill="none" stroke="#d0d7de" stroke-width="1" opacity="0.60"/><polygon points="0.0,-53.0 41.4,-33.0 51.7,11.8 23.0,47.8 -23.0,47.8 -51.7,11.8 -41.4,-33.0" fill="none" stroke="#d0d7de" stroke-width="1" opacity="0.47"/><line x1="0" y1="0" x2="0.0" y2="-212.0" stroke="#e6eaef" stroke-width="1"/><line x1="0" y1="0" x2="165.7" y2="-132.2" stroke="#e6eaef" stroke-width="1"/><line x1="0" y1="0" x2="206.7" y2="47.2" stroke="#e6eaef" stroke-width="1"/><line x1="0" y1="0" x2="92.0" y2="191.0" stroke="#e6eaef" stroke-width="1"/><line x1="0" y1="0" x2="-92.0" y2="191.0" stroke="#e6eaef" stroke-width="1"/><line x1="0" y1="0" x2="-206.7" y2="47.2" stroke="#e6eaef" stroke-width="1"/><line x1="0" y1="0" x2="-165.7" y2="-132.2" stroke="#e6eaef" stroke-width="1"/><g><animateTransform attributeName="transform" type="scale" values="0.04;1" dur="1.1s" calcMode="spline" keyTimes="0;1" keySplines="0.22 1 0.36 1" fill="freeze"/><polygon points="0.0,-212.0 78.2,-62.4 95.1,21.7 31.4,65.1 -18.8,39.0 -15.1,3.4 -7.3,-5.8" fill="#7C3AED" fill-opacity="0.25" stroke="#6D28D9" stroke-width="2.5" stroke-linejoin="round"/><circle cx="0.0" cy="-212.0" r="3.6" fill="#5B21B6" stroke="#6D28D9" stroke-width="1.2"/><circle cx="78.2" cy="-62.4" r="3.6" fill="#5B21B6" stroke="#6D28D9" stroke-width="1.2"/><circle cx="95.1" cy="21.7" r="3.6" fill="#5B21B6" stroke="#6D28D9" stroke-width="1.2"/><circle cx="31.4" cy="65.1" r="3.6" fill="#5B21B6" stroke="#6D28D9" stroke-width="1.2"/><circle cx="-18.8" cy="39.0" r="3.6" fill="#5B21B6" stroke="#6D28D9" stroke-width="1.2"/><circle cx="-15.1" cy="3.4" r="3.6" fill="#5B21B6" stroke="#6D28D9" stroke-width="1.2"/><circle cx="-7.3" cy="-5.8" r="3.6" fill="#5B21B6" stroke="#6D28D9" stroke-width="1.2"/></g><text x="0.0" y="-237.0" text-anchor="middle" font-size="13" font-weight="600" fill="#1f2328">JavaScript</text><text x="0.0" y="-222.0" text-anchor="middle" font-size="11" fill="#57606a">100</text><text x="181.4" y="-149.6" text-anchor="start" font-size="13" font-weight="600" fill="#1f2328">Python</text><text x="181.4" y="-134.6" text-anchor="start" font-size="11" fill="#57606a">47.2</text><text x="226.2" y="55.6" text-anchor="start" font-size="13" font-weight="600" fill="#1f2328">TypeScript</text><text x="226.2" y="70.6" text-anchor="start" font-size="11" fill="#57606a">46</text><text x="100.7" y="223.0" text-anchor="start" font-size="13" font-weight="600" fill="#1f2328">HTML</text><text x="100.7" y="238.0" text-anchor="start" font-size="11" fill="#57606a">34.1</text><text x="-100.7" y="223.0" text-anchor="end" font-size="13" font-weight="600" fill="#1f2328">CSS</text><text x="-100.7" y="238.0" text-anchor="end" font-size="11" fill="#57606a">20.4</text><text x="-226.2" y="55.6" text-anchor="end" font-size="13" font-weight="600" fill="#1f2328">PLpgSQL</text><text x="-226.2" y="70.6" text-anchor="end" font-size="11" fill="#57606a">7.3</text><text x="-181.4" y="-149.6" text-anchor="end" font-size="13" font-weight="600" fill="#1f2328">PowerShell</text><text x="-181.4" y="-134.6" text-anchor="end" font-size="11" fill="#57606a">4.4</text></g></svg>